<svg xmlns="http://www.w3.org/2000/svg" width="375" viewBox="0 0 375 375" height="375" version="1.0"><defs><clipPath id="a"><path d="M 17.039062 154.226562 L 82.746094 154.226562 L 82.746094 219.933594 L 17.039062 219.933594 Z M 17.039062 154.226562"/></clipPath><clipPath id="b"><path d="M 53 154.226562 L 82.746094 154.226562 L 82.746094 184 L 53 184 Z M 53 154.226562"/></clipPath><clipPath id="c"><path d="M 17.039062 194 L 43 194 L 43 219.933594 L 17.039062 219.933594 Z M 17.039062 194"/></clipPath></defs><g><g><g><path d="M 27.703125 -27.703125 L 27.703125 -32.328125 L 17.3125 -53.109375 L 6.921875 -32.328125 L 6.921875 -27.703125 Z M 0 0 L 0 -32.328125 L 15 -62.34375 L 19.625 -62.34375 L 34.625 -32.328125 L 34.625 0 L 27.703125 0 L 27.703125 -20.78125 L 6.921875 -20.78125 L 6.921875 0 Z M 0 0" transform="translate(88.697 220.882)"/></g></g></g><g><g><g><path d="M 20.78125 -34.625 L 27.703125 -41.5625 L 27.703125 -48.484375 L 20.78125 -55.40625 L 6.921875 -55.40625 L 6.921875 -34.625 Z M 0 0 L 0 -62.34375 L 23.09375 -62.34375 L 34.625 -50.796875 L 34.625 -39.25 L 23.09375 -27.703125 L 6.921875 -27.703125 L 6.921875 0 Z M 0 0" transform="translate(134.869 220.882)"/></g></g></g><g><g><g><path d="M 6.921875 0 L 6.921875 -6.921875 L 13.859375 -6.921875 L 13.859375 -41.5625 L 6.921875 -41.5625 L 6.921875 -48.484375 L 20.78125 -48.484375 L 20.78125 -6.921875 L 27.703125 -6.921875 L 27.703125 0 Z M 13.859375 -55.40625 L 13.859375 -62.34375 L 20.78125 -62.34375 L 20.78125 -55.40625 Z M 13.859375 -55.40625" transform="translate(181.04 220.882)"/></g></g></g><g><g><g><path d="M 20.78125 -6.921875 L 27.703125 -13.859375 L 27.703125 -20.78125 L 20.78125 -27.703125 L 6.921875 -27.703125 L 6.921875 -6.921875 Z M 20.78125 -34.625 L 27.703125 -41.5625 L 27.703125 -48.484375 L 20.78125 -55.40625 L 6.921875 -55.40625 L 6.921875 -34.625 Z M 0 0 L 0 -62.34375 L 23.09375 -62.34375 L 34.625 -50.796875 L 34.625 -39.25 L 27.703125 -32.328125 L 27.5625 -32.328125 L 26.546875 -31.171875 L 34.625 -23.09375 L 34.625 -11.546875 L 23.09375 0 Z M 0 0" transform="translate(227.213 220.882)"/></g></g></g><g><g><g><path d="M 20.78125 -6.921875 L 27.703125 -13.859375 L 27.703125 -48.484375 L 20.78125 -55.40625 L 13.859375 -55.40625 L 6.921875 -48.484375 L 6.921875 -13.859375 L 13.859375 -6.921875 Z M 11.546875 0 L 0 -11.546875 L 0 -50.796875 L 11.546875 -62.34375 L 23.09375 -62.34375 L 34.625 -50.796875 L 34.625 -11.546875 L 23.09375 0 Z M 11.546875 0" transform="translate(273.385 220.882)"/></g></g></g><g><g><g><path d="M 4.625 0 L 0 -2.3125 L 13.859375 -30.015625 L 13.859375 -32.328125 L 0 -60.03125 L 4.625 -62.34375 L 5.765625 -62.34375 L 17.3125 -39.25 L 28.859375 -62.34375 L 30.015625 -62.34375 L 34.625 -60.03125 L 20.78125 -32.328125 L 20.78125 -30.015625 L 34.625 -2.3125 L 30.015625 0 L 28.859375 0 L 17.3125 -23.09375 L 5.765625 0 Z M 4.625 0" transform="translate(319.557 220.882)"/></g></g></g><g clip-path="url(#a)"><path d="M 80.878906 209.058594 L 46.351562 174.527344 C 46.941406 172.914062 47.265625 171.164062 47.265625 169.339844 C 47.265625 160.996094 40.5 154.230469 32.152344 154.230469 C 30.855469 154.230469 29.601562 154.394531 28.402344 154.699219 L 37.296875 163.597656 C 38.753906 165.046875 37.539062 168.621094 34.589844 171.570312 C 31.640625 174.519531 28.066406 175.734375 26.613281 174.28125 L 17.601562 165.265625 C 17.234375 166.5625 17.042969 167.933594 17.042969 169.339844 C 17.042969 177.683594 23.808594 184.453125 32.152344 184.453125 C 33.976562 184.453125 35.726562 184.128906 37.339844 183.535156 L 71.871094 218.0625 C 73.023438 219.21875 74.613281 219.929688 76.375 219.929688 C 79.890625 219.929688 82.742188 217.078125 82.742188 213.5625 C 82.742188 211.800781 82.027344 210.210938 80.878906 209.058594 Z M 76.375 216.082031 C 74.984375 216.082031 73.855469 214.949219 73.855469 213.5625 C 73.855469 212.171875 74.984375 211.042969 76.375 211.042969 C 77.765625 211.042969 78.894531 212.171875 78.894531 213.5625 C 78.894531 214.949219 77.765625 216.082031 76.375 216.082031 Z M 76.375 216.082031"/></g><g clip-path="url(#b)"><path d="M 69.183594 161.746094 L 71.199219 163.761719 L 58.101562 176.855469 L 60.113281 178.867188 L 73.210938 165.773438 L 75.222656 167.789062 L 62.128906 180.878906 L 64.453125 183.207031 L 80.527344 167.125 C 81.898438 165.757812 82.742188 163.875 82.742188 161.785156 C 82.742188 157.613281 79.363281 154.230469 75.1875 154.230469 C 73.09375 154.230469 71.203125 155.078125 69.835938 156.449219 L 53.765625 172.519531 L 56.09375 174.839844 Z M 69.183594 161.746094"/></g><g clip-path="url(#c)"><path d="M 26.492188 206.855469 L 22.746094 207.292969 L 17.042969 216.300781 L 20.601562 219.867188 L 20.652344 219.820312 L 20.667969 219.929688 L 29.679688 214.222656 L 30.132812 210.335938 L 42.429688 198.039062 L 38.863281 194.480469 Z M 26.492188 206.855469"/></g><path fill="#262626" d="M 3.679688 132.925781 L 3.679688 242.078125 L 367.140625 242.078125 L 367.140625 132.925781 L 3.679688 132.925781 M 357.855469 232.753906 L 12.769531 232.753906 L 12.769531 142.054688 L 357.855469 142.054688 L 357.855469 232.753906"/></svg>