<svg xmlns="http://www.w3.org/2000/svg" width="375" viewBox="0 0 375 375" height="375" version="1.0"><defs><clipPath id="a"><path d="M 12.871094 134.285156 L 102.121094 134.285156 L 102.121094 223.535156 L 12.871094 223.535156 Z M 12.871094 134.285156"/></clipPath></defs><g clip-path="url(#a)"><path fill="#FF914D" d="M 94.566406 162.117188 C 94.238281 161.804688 94.175781 161.316406 94.386719 160.9375 L 94.363281 160.917969 C 94.105469 160.71875 93.761719 160.515625 93.386719 160.261719 C 93.019531 160 92.566406 159.761719 92.097656 159.472656 C 91.605469 159.21875 91.097656 158.90625 90.519531 158.65625 C 90.234375 158.519531 89.941406 158.386719 89.636719 158.265625 C 89.335938 158.136719 89.027344 158 88.703125 157.898438 C 88.382812 157.785156 88.058594 157.664062 87.71875 157.574219 C 87.386719 157.46875 87.046875 157.367188 86.699219 157.292969 C 86.523438 157.25 86.351562 157.207031 86.175781 157.164062 L 85.648438 157.0625 C 85.292969 156.984375 84.933594 156.945312 84.578125 156.886719 C 84.21875 156.835938 83.859375 156.8125 83.5 156.773438 C 83.136719 156.757812 82.78125 156.722656 82.421875 156.722656 C 81.707031 156.699219 81.003906 156.722656 80.320312 156.773438 C 79.640625 156.835938 78.976562 156.890625 78.355469 157 C 77.730469 157.101562 77.140625 157.210938 76.601562 157.339844 C 76.0625 157.464844 75.566406 157.59375 75.128906 157.71875 C 74.695312 157.851562 74.3125 157.960938 74.003906 158.074219 C 73.382812 158.28125 73.03125 158.429688 73.03125 158.429688 C 73.03125 158.429688 73.328125 158.1875 73.898438 157.847656 C 74.183594 157.675781 74.539062 157.476562 74.953125 157.273438 C 75.375 157.070312 75.851562 156.84375 76.386719 156.648438 C 76.925781 156.445312 77.515625 156.234375 78.15625 156.074219 C 78.796875 155.90625 79.480469 155.753906 80.195312 155.65625 C 80.914062 155.5625 81.664062 155.484375 82.425781 155.476562 C 82.808594 155.460938 83.195312 155.488281 83.582031 155.496094 C 83.96875 155.527344 84.355469 155.550781 84.742188 155.605469 C 85.125 155.65625 85.515625 155.703125 85.894531 155.792969 L 86.460938 155.90625 C 86.648438 155.953125 86.835938 156.003906 87.019531 156.054688 C 87.757812 156.25 88.472656 156.503906 89.136719 156.796875 C 89.476562 156.929688 89.792969 157.09375 90.109375 157.246094 C 90.261719 157.328125 90.421875 157.394531 90.570312 157.480469 C 90.71875 157.566406 90.863281 157.652344 91.003906 157.738281 C 91.292969 157.90625 91.570312 158.066406 91.824219 158.246094 C 92.082031 158.425781 92.335938 158.582031 92.5625 158.757812 C 93.011719 159.125 93.441406 159.429688 93.777344 159.753906 C 94.117188 160.074219 94.421875 160.335938 94.648438 160.585938 L 94.671875 160.613281 C 95.042969 160.34375 95.566406 160.367188 95.910156 160.695312 C 96.304688 161.066406 96.320312 161.6875 95.949219 162.078125 C 95.578125 162.46875 94.960938 162.488281 94.566406 162.117188 Z M 89.699219 177.441406 C 88.335938 184.339844 76.804688 179.492188 76.777344 179.480469 C 76.761719 179.546875 78.722656 181.308594 80.785156 181.96875 C 79.625 182.359375 78.386719 182.574219 77.09375 182.574219 C 76.734375 182.574219 76.378906 182.554688 76.027344 182.523438 C 75.894531 183.078125 75.753906 183.648438 75.605469 184.238281 C 70.386719 181.476562 66.324219 178.097656 64.3125 175.078125 C 64.902344 174.90625 65.5 174.761719 66.109375 174.636719 C 65.640625 173.214844 65.433594 171.675781 65.5625 170.074219 C 66.015625 164.390625 70.632812 159.832031 76.320312 159.460938 C 83.058594 159.027344 92.023438 165.671875 89.699219 177.441406 Z M 72.683594 193.53125 C 71.429688 193.042969 70.15625 192.488281 68.871094 191.855469 C 61.785156 188.359375 56.582031 183.652344 55.289062 179.988281 C 56.882812 178.59375 58.671875 177.410156 60.617188 176.480469 C 61.023438 180.210938 66.4375 185.507812 74.148438 189.390625 C 73.722656 190.730469 73.242188 192.113281 72.683594 193.53125 Z M 68.996094 201.917969 C 66.453125 201.246094 63.703125 200.21875 60.925781 198.847656 C 55.410156 196.128906 51.039062 192.675781 48.757812 189.550781 C 49.648438 187.035156 50.980469 184.71875 52.660156 182.6875 C 52.292969 186.476562 58.089844 192.382812 66.550781 196.558594 C 67.894531 197.222656 69.230469 197.804688 70.542969 198.304688 C 70 199.464844 69.464844 200.679688 68.996094 201.917969 Z M 67.492188 209.847656 C 63.644531 209.871094 58.363281 208.5 52.976562 205.84375 C 51.320312 205.027344 49.773438 204.140625 48.347656 203.21875 C 47.777344 201.25 47.46875 199.171875 47.46875 197.023438 C 47.46875 196.542969 47.488281 196.066406 47.519531 195.59375 C 49.972656 198.339844 53.867188 201.21875 58.605469 203.554688 C 61.734375 205.097656 64.824219 206.203125 67.625 206.859375 C 67.46875 207.878906 67.414062 208.878906 67.492188 209.847656 Z M 70.242188 158.097656 C 70.457031 157.84375 70.726562 157.539062 71.054688 157.210938 C 71.386719 156.886719 71.761719 156.515625 72.207031 156.152344 C 72.648438 155.789062 73.136719 155.398438 73.691406 155.039062 C 74.242188 154.667969 74.839844 154.304688 75.484375 153.976562 C 76.132812 153.65625 76.816406 153.339844 77.535156 153.082031 C 77.894531 152.945312 78.265625 152.84375 78.632812 152.722656 C 79.007812 152.628906 79.382812 152.523438 79.765625 152.449219 C 80.148438 152.375 80.53125 152.292969 80.914062 152.253906 L 81.492188 152.175781 C 81.683594 152.160156 81.875 152.148438 82.066406 152.136719 C 82.828125 152.078125 83.585938 152.089844 84.3125 152.148438 C 84.675781 152.160156 85.027344 152.214844 85.375 152.253906 C 85.546875 152.28125 85.71875 152.292969 85.886719 152.328125 C 86.054688 152.359375 86.21875 152.394531 86.382812 152.425781 C 86.707031 152.492188 87.023438 152.554688 87.324219 152.644531 C 87.625 152.726562 87.914062 152.796875 88.1875 152.886719 C 88.730469 153.085938 89.234375 153.238281 89.660156 153.429688 C 90.085938 153.625 90.460938 153.773438 90.753906 153.933594 L 90.785156 153.953125 C 91.050781 153.578125 91.550781 153.433594 91.984375 153.628906 C 92.476562 153.851562 92.691406 154.433594 92.46875 154.921875 C 92.246094 155.414062 91.667969 155.632812 91.175781 155.410156 C 90.761719 155.222656 90.546875 154.78125 90.621094 154.351562 L 90.59375 154.34375 C 90.285156 154.238281 89.894531 154.15625 89.457031 154.042969 C 89.023438 153.914062 88.519531 153.832031 87.980469 153.714844 C 87.433594 153.632812 86.851562 153.503906 86.222656 153.457031 C 85.910156 153.417969 85.589844 153.386719 85.261719 153.371094 C 84.933594 153.351562 84.597656 153.320312 84.257812 153.328125 C 83.917969 153.324219 83.570312 153.316406 83.222656 153.34375 C 82.871094 153.355469 82.519531 153.367188 82.164062 153.40625 C 81.988281 153.425781 81.808594 153.441406 81.628906 153.457031 L 81.097656 153.535156 C 80.738281 153.574219 80.382812 153.65625 80.027344 153.71875 C 79.671875 153.78125 79.324219 153.882812 78.972656 153.960938 C 78.625 154.0625 78.273438 154.144531 77.9375 154.261719 C 77.253906 154.472656 76.59375 154.726562 75.964844 154.992188 C 75.34375 155.277344 74.730469 155.542969 74.179688 155.847656 C 73.625 156.148438 73.101562 156.445312 72.632812 156.738281 C 72.164062 157.035156 71.738281 157.316406 71.363281 157.578125 C 71 157.84375 70.671875 158.074219 70.417969 158.277344 C 69.894531 158.679688 69.613281 158.933594 69.613281 158.933594 C 69.613281 158.933594 69.816406 158.609375 70.242188 158.097656 Z M 57.496094 134.289062 C 47.054688 134.289062 37.453125 137.875 29.851562 143.878906 C 43.339844 139.417969 58.285156 161.484375 60.191406 174.332031 C 58.875 174.9375 57.609375 175.636719 56.410156 176.417969 C 55.980469 175.46875 55.457031 174.484375 54.847656 173.472656 C 48.8125 163.472656 32.558594 150.378906 22.355469 151.40625 C 22.160156 151.65625 21.96875 151.90625 21.777344 152.160156 C 34.144531 152.472656 50.78125 167.78125 55.011719 177.382812 C 51.011719 180.335938 47.839844 184.253906 45.816406 188.734375 C 36.242188 188.859375 20.433594 182.40625 13.191406 173.59375 C 12.980469 175.335938 12.875 177.109375 12.875 178.910156 C 12.875 203.554688 32.851562 223.53125 57.496094 223.53125 C 64.316406 223.53125 70.777344 222 76.5625 219.261719 C 74.777344 219.6875 72.910156 219.914062 70.992188 219.914062 C 63.664062 219.914062 57.117188 216.652344 52.804688 211.539062 C 59.457031 214.421875 65.671875 215.285156 68.867188 213.914062 C 70.324219 216.066406 73.050781 217.78125 77.648438 218.730469 C 92.167969 211.367188 102.117188 196.300781 102.117188 178.910156 C 102.117188 154.265625 82.140625 134.289062 57.496094 134.289062"/></g><path fill="#FF914D" d="M 82.75 174.136719 C 81.828125 174.136719 81.085938 173.390625 81.085938 172.472656 C 81.085938 171.554688 81.828125 170.808594 82.75 170.808594 C 83.109375 170.808594 83.441406 170.925781 83.710938 171.121094 C 83.425781 171.28125 83.226562 171.582031 83.226562 171.933594 C 83.226562 172.445312 83.640625 172.863281 84.152344 172.863281 C 84.226562 172.863281 84.300781 172.851562 84.367188 172.835938 C 84.203125 173.578125 83.542969 174.136719 82.75 174.136719 Z M 82.019531 165.34375 C 79.296875 165.34375 77.09375 167.550781 77.09375 170.273438 C 77.09375 172.992188 79.296875 175.199219 82.019531 175.199219 C 84.738281 175.199219 86.945312 172.992188 86.945312 170.273438 C 86.945312 167.550781 84.738281 165.34375 82.019531 165.34375"/><g><g><g><path d="M 8.609375 0.210938 L 9.460938 0.105469 L 12.4375 0.210938 L 13.078125 -0.210938 L 13.5 -0.957031 L 13.820312 -1.488281 L 14.140625 -2.65625 L 14.777344 -4.253906 L 15.839844 -6.273438 L 16.265625 -7.546875 L 16.585938 -8.292969 L 16.796875 -9.035156 L 17.542969 -10.417969 L 18.074219 -11.589844 L 20.941406 -11.589844 L 25.621094 -11.480469 L 27.320312 -11.269531 L 29.660156 -11.164062 L 29.765625 -10.3125 L 29.765625 -5.316406 L 29.660156 -4.253906 L 29.765625 -3.1875 L 29.875 -1.277344 L 30.085938 -0.210938 L 30.511719 0.105469 L 32.105469 0.105469 L 33.488281 0.210938 L 34.550781 0.105469 L 35.296875 0 L 36.570312 0.105469 L 37.421875 0.105469 L 39.761719 0 L 41.25 0 L 42.097656 0.105469 L 42.84375 0 C 43.269531 0 43.585938 0.105469 44.011719 0 C 44.542969 -0.320312 44.4375 -1.277344 44.332031 -1.699219 L 44.332031 -3.933594 L 44.226562 -6.273438 L 44.226562 -7.230469 L 44.121094 -8.078125 L 44.226562 -9.566406 L 44.226562 -11.164062 L 44.121094 -11.90625 L 44.011719 -13.289062 L 44.011719 -13.925781 L 43.800781 -17.964844 L 43.90625 -18.710938 L 43.800781 -20.199219 L 43.90625 -21.792969 L 43.800781 -23.386719 L 43.800781 -24.132812 L 43.695312 -29.023438 L 43.695312 -32.210938 L 43.585938 -33.0625 L 43.480469 -34.339844 L 43.480469 -38.484375 L 43.269531 -39.652344 L 43.164062 -41.355469 L 43.164062 -41.992188 L 43.054688 -43.375 L 43.164062 -44.011719 L 43.054688 -45.5 L 43.054688 -47.628906 L 42.84375 -49.117188 L 42.84375 -51.453125 L 42.949219 -52.199219 L 42.84375 -53.792969 L 42.84375 -55.28125 L 42.632812 -57.40625 L 42.523438 -58.789062 L 42.523438 -60.277344 L 42.417969 -64.105469 L 42.417969 -66.019531 L 42.207031 -66.65625 L 42.207031 -68.996094 L 41.886719 -73.566406 L 41.140625 -74.097656 L 40.609375 -74.3125 L 38.910156 -74.3125 L 37.953125 -74.207031 L 37.210938 -74.417969 L 36.253906 -74.417969 L 34.230469 -74.3125 L 32.53125 -74.3125 L 31.46875 -74.207031 L 29.449219 -74.3125 L 28.386719 -74.3125 L 27.640625 -74.207031 L 27.214844 -73.035156 L 26.898438 -72.398438 L 26.578125 -71.652344 L 25.621094 -69.742188 L 24.875 -68.359375 L 24.238281 -66.445312 L 24.027344 -65.914062 L 23.601562 -65.273438 L 22.964844 -64.105469 L 22.75 -63.363281 L 22.539062 -62.722656 L 22.21875 -62.085938 L 22.007812 -61.339844 L 21.050781 -59.429688 L 20.730469 -58.683594 L 20.410156 -57.621094 L 19.773438 -56.664062 L 19.453125 -56.027344 L 18.921875 -54.644531 L 18.074219 -52.410156 L 17.648438 -51.773438 L 17.117188 -51.03125 L 16.796875 -49.542969 L 16.160156 -48.160156 L 15.945312 -47.628906 L 15.628906 -46.246094 L 15.097656 -45.5 L 14.777344 -44.121094 L 14.457031 -43.480469 L 13.820312 -42.3125 L 13.289062 -40.503906 L 12.542969 -39.121094 L 12.226562 -38.273438 L 11.375 -35.296875 L 11.054688 -34.65625 L 10.523438 -33.167969 L 10.207031 -32.53125 L 9.886719 -31.789062 L 9.78125 -31.148438 L 9.144531 -29.660156 L 8.929688 -28.917969 L 8.292969 -27.640625 L 7.761719 -26.789062 L 7.546875 -25.832031 L 7.335938 -25.089844 L 6.589844 -23.601562 L 6.273438 -22.855469 L 5.742188 -21.476562 L 5.421875 -20.835938 L 5.316406 -20.09375 L 5.101562 -19.453125 L 4.570312 -18.179688 L 4.039062 -17.433594 L 3.828125 -16.796875 L 2.976562 -14.882812 L 2.550781 -13.5 L 1.382812 -10.949219 L 0.851562 -9.675781 L 0.210938 -8.398438 L -0.851562 -5.210938 L -1.699219 -3.828125 L -2.339844 -2.550781 L -2.445312 -1.914062 L -2.65625 -1.167969 L -2.445312 -0.320312 L -1.488281 -0.105469 L 6.273438 0 L 7.015625 0.105469 Z M 26.152344 -25.410156 L 25.195312 -25.515625 L 24.027344 -25.621094 L 23.175781 -25.621094 L 22.433594 -26.257812 L 22.75 -27.003906 L 22.964844 -27.960938 L 23.175781 -28.703125 L 23.707031 -30.511719 L 24.132812 -31.253906 L 24.664062 -32.851562 L 24.769531 -33.59375 L 25.410156 -35.933594 L 25.726562 -36.890625 L 26.046875 -37.632812 L 26.367188 -38.589844 L 26.789062 -39.335938 L 26.898438 -40.078125 L 27.320312 -41.140625 L 27.746094 -41.992188 L 28.277344 -43.695312 L 28.597656 -44.757812 L 29.128906 -46.457031 L 29.554688 -47.839844 L 30.40625 -48.160156 L 30.511719 -45.714844 L 30.40625 -41.886719 L 30.296875 -37.847656 L 30.40625 -35.296875 L 30.191406 -34.445312 L 30.191406 -32.636719 L 30.085938 -31.894531 L 30.085938 -29.128906 L 29.980469 -28.277344 L 30.085938 -27.429688 L 29.980469 -25.941406 L 29.34375 -25.410156 Z M 26.152344 -25.410156" transform="translate(106.762 221.618)"/></g></g></g><g><g><g><path d="M 8.292969 0.105469 L 16.796875 0.105469 L 17.542969 0 L 17.859375 -1.277344 L 17.964844 -2.125 L 18.074219 -3.082031 L 18.390625 -3.933594 L 18.5 -4.675781 L 18.710938 -5.316406 L 18.816406 -6.058594 L 18.816406 -6.910156 L 19.242188 -7.546875 L 19.242188 -9.035156 L 19.5625 -10.632812 L 19.5625 -11.695312 L 19.878906 -12.4375 L 19.988281 -13.183594 L 20.304688 -14.457031 L 20.519531 -15.203125 L 20.730469 -16.476562 L 21.050781 -17.433594 L 21.367188 -18.921875 L 21.367188 -19.5625 L 21.476562 -20.304688 L 21.6875 -20.941406 L 21.792969 -21.6875 L 21.898438 -22.324219 L 22.007812 -23.707031 L 22.21875 -24.238281 L 22.324219 -25.621094 L 22.644531 -26.472656 L 22.75 -27.214844 L 22.75 -27.429688 L 24.34375 -27.320312 L 26.683594 -27.320312 L 28.703125 -27.214844 L 31.679688 -27.429688 L 33.167969 -27.640625 L 34.550781 -27.746094 L 35.828125 -27.960938 L 37.527344 -28.492188 L 38.910156 -29.128906 L 39.972656 -29.449219 L 41.460938 -30.191406 L 41.992188 -30.832031 L 43.375 -31.894531 L 43.90625 -32.636719 L 44.652344 -33.699219 L 45.609375 -34.550781 L 46.351562 -35.828125 L 46.988281 -36.464844 L 47.945312 -38.058594 L 48.691406 -39.335938 L 49.222656 -40.503906 L 50.074219 -42.523438 L 50.605469 -44.011719 L 50.921875 -44.863281 L 51.242188 -46.351562 L 51.453125 -46.988281 L 51.5625 -47.628906 L 51.878906 -48.371094 L 51.984375 -49.222656 L 52.304688 -49.964844 L 52.519531 -51.453125 L 52.730469 -53.792969 L 52.835938 -54.539062 L 53.050781 -55.707031 L 53.15625 -56.875 L 53.050781 -58.046875 L 53.050781 -58.789062 L 52.941406 -60.386719 L 53.050781 -61.449219 L 52.730469 -62.617188 L 52.625 -63.363281 L 52.519531 -64.53125 L 52.09375 -65.699219 L 51.878906 -66.445312 L 51.242188 -67.828125 L 50.921875 -68.675781 L 50.285156 -69.421875 L 49.648438 -70.273438 L 49.222656 -70.804688 L 48.265625 -71.652344 L 46.882812 -72.398438 L 46.140625 -72.71875 L 45.394531 -73.25 L 44.652344 -73.460938 L 42.949219 -73.78125 L 40.71875 -74.097656 L 39.335938 -74.3125 L 38.484375 -74.3125 L 36.890625 -74.523438 L 35.402344 -74.523438 L 33.808594 -74.417969 L 33.0625 -74.523438 L 25.941406 -74.523438 L 25.300781 -74.417969 L 23.921875 -74.523438 L 22.539062 -74.417969 L 17.011719 -74.417969 L 16.160156 -73.992188 L 15.734375 -72.609375 L 15.628906 -71.761719 L 15.308594 -70.273438 L 15.203125 -69.421875 L 15.097656 -68.675781 L 14.671875 -66.976562 L 14.457031 -66.230469 L 14.457031 -65.59375 L 14.351562 -64.851562 L 14.140625 -64.105469 L 14.140625 -63.253906 L 13.925781 -62.511719 L 13.820312 -61.234375 L 13.5 -60.277344 L 13.183594 -58.789062 L 12.96875 -57.941406 L 12.863281 -56.027344 L 12.757812 -55.386719 L 12.4375 -54.007812 L 12.542969 -53.582031 L 12.4375 -52.410156 L 12.011719 -50.710938 L 11.90625 -50.074219 L 11.800781 -48.691406 L 11.480469 -47.945312 L 11.269531 -47.203125 L 11.164062 -45.820312 L 11.164062 -44.542969 L 10.84375 -43.164062 L 10.523438 -41.460938 L 10.3125 -39.867188 L 10.207031 -39.015625 L 9.886719 -37.527344 L 9.78125 -36.890625 L 9.566406 -36.144531 L 9.460938 -35.507812 L 9.25 -34.765625 L 9.144531 -33.277344 L 9.035156 -32.425781 L 8.71875 -31.679688 L 8.398438 -29.449219 L 8.292969 -27.855469 L 7.972656 -27.214844 L 7.972656 -26.472656 L 7.761719 -25.832031 L 7.761719 -24.664062 L 7.230469 -23.601562 L 7.230469 -23.070312 L 7.121094 -21.792969 L 7.015625 -21.15625 L 6.589844 -19.773438 L 6.378906 -19.136719 L 6.273438 -18.390625 L 6.167969 -17.011719 L 5.847656 -16.371094 L 5.421875 -13.925781 L 5.316406 -13.289062 L 5.210938 -12.542969 L 4.890625 -11.269531 L 4.785156 -10.523438 L 4.464844 -9.144531 L 4.144531 -7.546875 L 3.828125 -6.058594 L 3.828125 -5.421875 L 3.507812 -3.933594 L 3.613281 -3.1875 L 3.296875 -2.550781 L 3.296875 -0.53125 L 3.933594 0 L 5.847656 -0.105469 L 6.589844 0 Z M 24.984375 -40.824219 L 25.089844 -41.78125 L 25.410156 -43.269531 L 25.410156 -44.226562 L 25.941406 -46.882812 L 26.152344 -47.839844 L 26.152344 -48.691406 L 26.257812 -49.964844 L 26.578125 -51.667969 L 26.789062 -52.730469 L 27.109375 -54.855469 L 27.429688 -56.132812 L 27.640625 -56.875 L 27.855469 -58.683594 L 27.960938 -59.746094 L 28.171875 -60.277344 L 28.703125 -61.554688 L 29.449219 -61.765625 L 31.894531 -61.875 L 34.765625 -61.765625 L 35.71875 -61.554688 L 36.890625 -60.703125 L 37.527344 -59.746094 L 37.953125 -58.472656 L 37.953125 -56.664062 L 37.742188 -53.898438 L 37.316406 -50.921875 L 36.890625 -49.117188 L 36.464844 -48.160156 L 36.253906 -47.203125 L 35.71875 -45.714844 L 35.296875 -45.074219 L 34.550781 -43.90625 L 33.382812 -42.84375 L 31.679688 -41.566406 L 30.9375 -41.25 L 28.917969 -41.035156 L 27.746094 -40.824219 Z M 24.984375 -40.824219" transform="translate(154.174 221.618)"/></g></g></g><g><g><g><path d="M 14.671875 0.210938 L 17.433594 0.210938 L 18.605469 -0.105469 L 18.921875 -1.0625 L 19.03125 -1.914062 L 19.347656 -3.296875 L 19.5625 -4.785156 L 19.878906 -6.167969 L 20.304688 -8.71875 L 20.625 -9.886719 L 20.625 -10.632812 L 20.835938 -12.011719 L 21.050781 -13.5 L 21.367188 -14.988281 L 21.367188 -15.839844 L 21.792969 -17.222656 L 21.898438 -18.074219 L 22.21875 -19.667969 L 22.113281 -20.835938 L 22.644531 -21.898438 L 22.644531 -23.386719 L 22.75 -23.921875 L 22.964844 -25.410156 L 22.964844 -26.257812 L 23.386719 -27.746094 L 23.386719 -28.597656 L 23.8125 -30.085938 L 24.027344 -31.363281 L 24.238281 -32.742188 L 24.558594 -34.125 L 24.558594 -34.976562 L 24.875 -35.71875 L 25.300781 -37.210938 L 25.832031 -40.398438 L 26.152344 -41.460938 L 26.367188 -42.84375 L 26.367188 -43.585938 L 26.472656 -44.4375 L 26.578125 -45.183594 L 26.578125 -46.140625 L 26.898438 -47.097656 L 27.214844 -48.585938 L 27.320312 -49.117188 L 27.640625 -50.496094 L 27.960938 -51.773438 L 28.171875 -53.15625 L 28.277344 -53.898438 L 28.386719 -55.175781 L 28.492188 -55.917969 L 28.703125 -57.195312 L 28.917969 -57.832031 L 29.128906 -59.003906 L 29.660156 -61.765625 L 29.765625 -62.40625 L 29.765625 -63.148438 L 29.875 -63.785156 L 29.875 -64.636719 L 30.296875 -65.59375 L 30.511719 -67.082031 L 30.832031 -67.613281 L 30.832031 -68.570312 L 31.148438 -68.996094 L 31.042969 -69.632812 L 31.148438 -70.804688 L 31.363281 -71.121094 L 31.363281 -72.503906 L 31.46875 -73.140625 L 31.042969 -74.207031 L 29.875 -74.523438 L 29.128906 -74.417969 L 23.496094 -74.417969 L 22.75 -74.3125 L 21.261719 -74.3125 L 20.304688 -74.417969 L 18.710938 -74.3125 L 17.964844 -74.207031 L 17.328125 -73.78125 L 16.585938 -73.460938 L 15.839844 -72.398438 L 15.734375 -71.652344 L 15.519531 -71.015625 L 15.308594 -69.421875 L 14.882812 -68.25 L 14.671875 -67.082031 L 14.566406 -65.808594 L 14.351562 -65.167969 L 14.246094 -64.53125 L 13.925781 -63.148438 L 13.714844 -61.660156 L 13.5 -61.128906 L 13.394531 -59.746094 L 13.289062 -58.898438 L 13.394531 -58.152344 L 12.96875 -56.769531 L 12.863281 -56.027344 L 12.542969 -54.644531 L 12.4375 -54.007812 L 12.011719 -52.730469 L 12.121094 -51.984375 L 12.011719 -51.347656 L 11.800781 -49.859375 L 11.480469 -49.117188 L 11.480469 -47.628906 L 11.164062 -45.394531 L 10.632812 -43.90625 L 10.3125 -42.523438 L 10.097656 -41.25 L 10.097656 -39.867188 L 9.675781 -39.015625 L 9.460938 -37.527344 L 9.460938 -36.785156 L 9.035156 -35.296875 L 9.035156 -33.808594 L 8.824219 -32.320312 L 8.71875 -31.679688 L 8.609375 -30.9375 L 8.398438 -30.191406 L 8.398438 -29.554688 L 8.1875 -27.960938 L 7.441406 -25.621094 L 7.546875 -24.875 L 7.335938 -24.132812 L 7.230469 -23.496094 L 7.015625 -22.75 L 7.015625 -22.007812 L 6.804688 -20.730469 L 6.589844 -19.773438 L 6.273438 -18.816406 L 6.058594 -17.859375 L 5.742188 -16.691406 L 5.421875 -14.777344 L 5.527344 -14.140625 L 5.101562 -12.757812 L 4.996094 -12.011719 L 4.785156 -11.164062 L 4.675781 -10.417969 L 4.359375 -8.824219 L 4.253906 -7.972656 L 4.039062 -6.484375 L 3.828125 -5.742188 L 3.722656 -4.144531 L 3.1875 -2.65625 L 3.296875 -1.0625 L 4.144531 -0.320312 L 4.996094 -0.105469 L 5.847656 -0.210938 L 6.589844 -0.105469 L 7.761719 0 L 8.503906 -0.105469 L 9.355469 -0.105469 L 10.84375 0.105469 L 13.925781 0.105469 Z M 14.671875 0.210938" transform="translate(202.862 221.618)"/></g></g></g><g fill="#FF914D"><g><g><path d="M 16.585938 0.105469 L 18.179688 0 L 18.5 0 L 19.347656 -0.105469 L 20.835938 -0.105469 L 21.6875 0 L 23.070312 0.105469 L 25.941406 0 L 26.683594 -0.105469 L 27.429688 0 L 29.023438 0.105469 L 30.617188 -0.210938 L 31.253906 -0.105469 L 32.636719 -0.425781 L 33.59375 -0.53125 L 34.230469 -0.636719 L 35.082031 -0.957031 L 36.253906 -1.277344 L 37.101562 -1.699219 L 37.847656 -2.019531 L 38.378906 -2.339844 L 38.910156 -2.765625 L 39.652344 -3.1875 L 40.1875 -3.722656 L 40.824219 -4.039062 L 41.675781 -4.570312 L 42.097656 -5.101562 L 42.84375 -5.742188 L 43.375 -6.273438 L 44.011719 -7.441406 L 44.96875 -8.71875 L 46.671875 -12.121094 L 46.882812 -12.863281 L 47.097656 -13.5 L 47.308594 -14.246094 L 47.519531 -14.882812 L 47.839844 -16.371094 L 47.945312 -17.117188 L 48.265625 -18.5 L 48.585938 -20.09375 L 48.796875 -21.6875 L 48.902344 -22.433594 L 48.902344 -23.8125 L 49.007812 -24.769531 L 48.796875 -25.832031 L 48.902344 -27.214844 L 48.476562 -28.597656 L 48.265625 -29.980469 L 47.945312 -30.617188 L 47.734375 -31.679688 L 47.203125 -32.851562 L 46.777344 -33.59375 L 46.140625 -34.65625 L 45.5 -35.296875 L 44.863281 -36.039062 L 43.585938 -36.890625 L 42.632812 -37.316406 L 41.460938 -37.953125 L 40.398438 -38.378906 L 40.398438 -39.015625 L 41.355469 -39.441406 L 42.632812 -39.972656 L 43.90625 -40.71875 L 44.652344 -41.140625 L 45.183594 -41.566406 L 45.714844 -42.207031 L 46.246094 -42.632812 L 47.628906 -44.011719 L 48.476562 -45.289062 L 49.222656 -46.351562 L 49.964844 -47.519531 L 50.390625 -48.476562 L 50.710938 -49.117188 L 50.921875 -49.859375 L 51.136719 -50.496094 L 51.242188 -51.242188 L 51.347656 -51.5625 L 51.5625 -52.304688 L 51.453125 -52.941406 L 51.878906 -54.324219 L 51.984375 -55.070312 L 52.199219 -56.453125 L 52.199219 -57.089844 L 52.410156 -57.832031 L 52.519531 -58.472656 L 52.519531 -59.214844 L 52.625 -59.851562 L 52.730469 -61.449219 L 52.519531 -62.722656 L 52.304688 -63.574219 L 52.304688 -64.320312 L 52.199219 -65.167969 L 51.5625 -66.65625 L 51.136719 -67.933594 L 50.816406 -68.464844 L 50.390625 -69.101562 L 49.433594 -69.953125 L 48.054688 -71.441406 L 46.882812 -72.398438 L 45.925781 -72.824219 L 44.863281 -73.355469 L 43.585938 -73.671875 L 41.992188 -74.097656 L 40.929688 -74.207031 L 39.761719 -74.417969 L 36.570312 -74.417969 L 35.082031 -74.523438 L 30.832031 -74.417969 L 25.621094 -74.628906 L 23.386719 -74.628906 L 22.21875 -74.523438 L 21.582031 -74.628906 L 18.921875 -74.628906 L 17.433594 -74.523438 L 16.476562 -73.671875 L 16.160156 -73.140625 L 15.945312 -72.183594 L 15.839844 -70.589844 L 15.734375 -69.847656 L 15.734375 -68.996094 L 15.414062 -67.613281 L 14.777344 -65.0625 L 14.457031 -63.679688 L 14.140625 -62.085938 L 13.925781 -58.683594 L 13.5 -57.195312 L 13.289062 -55.601562 L 13.183594 -54.964844 L 12.96875 -54.324219 L 12.96875 -53.582031 L 12.863281 -52.941406 L 12.757812 -51.984375 L 12.4375 -51.136719 L 12.332031 -50.496094 L 12.121094 -49.753906 L 12.011719 -48.476562 L 11.90625 -47.519531 L 11.589844 -46.5625 L 11.375 -45.820312 L 11.269531 -45.074219 L 11.269531 -44.226562 L 11.054688 -42.738281 L 10.632812 -41.25 L 10.523438 -40.398438 L 10.097656 -39.015625 L 9.886719 -38.484375 L 9.78125 -36.996094 L 9.355469 -35.507812 L 9.144531 -34.445312 L 9.035156 -34.019531 L 9.035156 -33.382812 L 8.71875 -32.105469 L 8.609375 -31.363281 L 8.398438 -29.980469 L 8.078125 -28.597656 L 8.078125 -27.855469 L 7.972656 -27.214844 L 7.761719 -26.367188 L 7.441406 -25.515625 L 7.121094 -24.027344 L 7.230469 -22.964844 L 6.804688 -21.898438 L 6.589844 -20.199219 L 6.378906 -18.605469 L 6.273438 -17.964844 L 5.953125 -17.117188 L 5.847656 -16.265625 L 5.632812 -15.519531 L 5.527344 -14.777344 L 5.316406 -14.140625 L 5.210938 -12.652344 L 4.996094 -11.164062 L 4.570312 -9.78125 L 4.464844 -9.035156 L 4.253906 -7.761719 L 4.039062 -6.273438 L 3.828125 -5.316406 L 3.507812 -4.464844 L 3.507812 -2.871094 L 3.296875 -1.808594 L 3.1875 -0.957031 L 3.933594 -0.320312 L 4.890625 -0.210938 L 6.484375 -0.105469 L 7.335938 -0.105469 L 7.972656 0 L 12.332031 0 L 14.03125 -0.105469 L 14.882812 -0.105469 Z M 28.597656 -46.140625 L 27.320312 -46.246094 L 25.941406 -46.246094 L 25.941406 -46.882812 L 26.046875 -47.945312 L 26.257812 -48.796875 L 27.003906 -54.007812 L 27.214844 -54.644531 L 27.320312 -55.386719 L 27.640625 -56.769531 L 27.640625 -57.515625 L 27.960938 -58.789062 L 28.066406 -59.535156 L 28.171875 -60.492188 L 28.492188 -61.449219 L 28.492188 -62.191406 L 29.34375 -62.40625 L 32 -62.40625 L 33.914062 -62.191406 L 34.871094 -61.980469 L 35.507812 -61.875 L 36.359375 -61.128906 L 36.675781 -60.597656 L 37.316406 -59.320312 L 37.421875 -58.046875 L 37.527344 -57.300781 L 37.632812 -56.132812 L 37.210938 -55.070312 L 37.101562 -54.21875 L 36.890625 -53.582031 L 36.570312 -52.304688 L 36.039062 -50.816406 L 35.1875 -49.753906 L 34.65625 -48.796875 L 33.382812 -47.734375 L 32.210938 -46.988281 L 31.363281 -46.457031 L 30.085938 -46.246094 Z M 21.792969 -13.609375 L 20.09375 -13.714844 L 20.519531 -15.097656 L 20.625 -15.945312 L 20.835938 -16.796875 L 21.050781 -18.285156 L 21.050781 -19.03125 L 21.367188 -20.625 L 21.582031 -21.367188 L 21.792969 -22.855469 L 21.898438 -23.707031 L 22.113281 -24.34375 L 22.113281 -25.089844 L 22.324219 -25.832031 L 22.539062 -27.429688 L 22.75 -27.855469 L 22.964844 -28.703125 L 23.175781 -30.617188 L 23.496094 -31.574219 L 24.984375 -31.574219 L 26.152344 -31.46875 L 27.640625 -31.46875 L 28.492188 -31.253906 L 29.554688 -31.042969 L 31.574219 -30.296875 L 32.742188 -29.234375 L 33.699219 -26.683594 L 33.59375 -25.300781 L 33.699219 -23.496094 L 33.488281 -21.582031 L 32.957031 -20.199219 L 32.851562 -19.347656 L 32.636719 -18.605469 L 32.105469 -17.433594 L 32 -16.585938 L 31.363281 -15.628906 L 30.617188 -14.988281 L 29.660156 -14.246094 L 28.917969 -13.925781 L 28.171875 -13.925781 L 27.429688 -13.609375 L 25.410156 -13.609375 L 22.75 -13.925781 Z M 21.792969 -13.609375" transform="translate(230.809 221.618)"/></g></g></g><g fill="#FF914D"><g><g><path d="M 15.628906 0.105469 L 16.476562 0 L 18.179688 -0.105469 L 20.410156 -0.105469 L 21.050781 -0.210938 L 22.433594 -0.105469 L 24.132812 -0.210938 L 34.230469 -0.210938 L 34.550781 -1.382812 L 34.765625 -2.339844 L 34.871094 -4.144531 L 35.1875 -5.742188 L 35.296875 -6.484375 L 35.507812 -7.121094 L 35.71875 -7.867188 L 35.71875 -9.25 L 36.144531 -11.589844 L 36.253906 -12.4375 L 36.464844 -13.609375 L 36.570312 -14.03125 L 36.675781 -14.882812 L 35.933594 -15.203125 L 32.957031 -15.097656 L 30.617188 -15.203125 L 29.128906 -15.308594 L 22.855469 -15.308594 L 21.367188 -15.519531 L 20.941406 -15.945312 L 20.941406 -16.796875 L 21.367188 -19.5625 L 21.6875 -21.476562 L 21.898438 -22.21875 L 22.007812 -23.28125 L 22.21875 -24.238281 L 22.539062 -25.300781 L 22.964844 -28.277344 L 23.28125 -29.660156 L 23.707031 -30.832031 L 24.664062 -30.832031 L 26.046875 -30.9375 L 27.214844 -30.9375 L 29.023438 -30.832031 L 31.679688 -30.9375 L 32.636719 -30.9375 L 34.230469 -31.042969 L 35.296875 -31.042969 L 35.507812 -31.253906 L 35.71875 -32.742188 L 36.039062 -34.445312 L 36.253906 -35.933594 L 36.570312 -36.785156 L 36.570312 -37.527344 L 36.890625 -39.121094 L 37.101562 -39.867188 L 37.421875 -41.355469 L 37.632812 -42.523438 L 37.632812 -43.375 L 37.847656 -44.652344 L 37.210938 -45.5 L 36.359375 -45.714844 L 33.59375 -45.714844 L 31.574219 -45.5 L 27.855469 -45.609375 L 25.941406 -45.609375 L 26.152344 -47.519531 L 26.472656 -48.585938 L 26.367188 -49.433594 L 26.578125 -50.179688 L 26.898438 -51.667969 L 27.109375 -53.15625 L 27.429688 -55.175781 L 27.429688 -56.027344 L 27.746094 -56.664062 L 27.746094 -58.152344 L 27.855469 -58.898438 L 28.171875 -60.171875 L 30.722656 -60.277344 L 37.632812 -60.277344 L 38.910156 -60.386719 L 43.375 -60.386719 L 44.4375 -60.492188 L 44.757812 -61.875 L 44.863281 -62.511719 L 45.289062 -64 L 45.289062 -64.851562 L 45.609375 -66.445312 L 45.714844 -67.082031 L 45.820312 -67.828125 L 46.140625 -68.570312 L 46.140625 -69.207031 L 46.351562 -71.867188 L 46.351562 -72.503906 L 46.671875 -73.671875 L 46.140625 -74.417969 L 45.183594 -74.523438 L 44.121094 -74.628906 L 43.164062 -74.523438 L 40.824219 -74.523438 L 37.742188 -74.417969 L 36.890625 -74.523438 L 34.445312 -74.628906 L 26.472656 -74.523438 L 24.132812 -74.417969 L 23.070312 -74.417969 L 22.21875 -74.523438 L 21.476562 -74.523438 L 20.199219 -74.417969 L 19.453125 -74.523438 L 18.816406 -74.417969 L 17.011719 -74.417969 L 16.160156 -73.78125 L 16.054688 -73.140625 L 15.734375 -72.503906 L 15.414062 -71.230469 L 15.628906 -70.484375 L 15.519531 -69.847656 L 15.414062 -68.464844 L 15.308594 -67.828125 L 15.097656 -67.1875 L 14.988281 -65.808594 L 14.777344 -65.0625 L 14.882812 -64.425781 L 14.566406 -63.679688 L 14.566406 -62.9375 L 14.246094 -62.296875 L 14.03125 -60.808594 L 13.609375 -59.429688 L 13.5 -58.683594 L 13.609375 -58.046875 L 13.5 -57.300781 L 13.289062 -56.453125 L 12.863281 -55.8125 L 12.757812 -53.582031 L 12.4375 -52.835938 L 12.332031 -49.859375 L 11.90625 -48.265625 L 11.589844 -46.777344 L 11.695312 -46.140625 L 11.480469 -45.394531 L 11.164062 -44.542969 L 10.523438 -41.355469 L 10.097656 -40.71875 L 10.097656 -39.972656 L 9.992188 -39.230469 L 9.886719 -38.378906 L 9.566406 -37.632812 L 9.355469 -36.039062 L 8.929688 -34.550781 L 8.929688 -32.957031 L 8.503906 -30.722656 L 8.292969 -29.980469 L 7.972656 -28.386719 L 7.867188 -27.640625 L 7.546875 -26.898438 L 7.230469 -25.515625 L 7.335938 -24.875 L 6.910156 -23.601562 L 6.910156 -23.070312 L 6.699219 -21.6875 L 6.484375 -20.835938 L 6.484375 -20.09375 L 6.273438 -18.390625 L 5.847656 -17.542969 L 5.632812 -16.160156 L 5.527344 -14.671875 L 5.421875 -13.925781 L 5.210938 -13.078125 L 5.210938 -12.332031 L 4.996094 -11.589844 L 4.996094 -10.632812 L 4.675781 -9.78125 L 4.570312 -8.078125 L 4.144531 -6.484375 L 3.933594 -4.785156 L 3.722656 -3.1875 L 3.507812 -2.234375 L 3.1875 -1.277344 L 3.507812 -0.320312 L 4.464844 -0.105469 L 10.097656 -0.105469 L 10.84375 0 L 13.609375 0 Z M 15.628906 0.105469" transform="translate(281.942 221.618)"/></g></g></g><g fill="#FF914D"><g><g><path d="M 15.628906 0.105469 L 16.476562 0 L 18.179688 -0.105469 L 20.410156 -0.105469 L 21.050781 -0.210938 L 22.433594 -0.105469 L 24.132812 -0.210938 L 34.230469 -0.210938 L 34.550781 -1.382812 L 34.765625 -2.339844 L 34.871094 -4.144531 L 35.1875 -5.742188 L 35.296875 -6.484375 L 35.507812 -7.121094 L 35.71875 -7.867188 L 35.71875 -9.25 L 36.144531 -11.589844 L 36.253906 -12.4375 L 36.464844 -13.609375 L 36.570312 -14.03125 L 36.675781 -14.882812 L 35.933594 -15.203125 L 32.957031 -15.097656 L 30.617188 -15.203125 L 29.128906 -15.308594 L 22.855469 -15.308594 L 21.367188 -15.519531 L 20.941406 -15.945312 L 20.941406 -16.796875 L 21.367188 -19.5625 L 21.6875 -21.476562 L 21.898438 -22.21875 L 22.007812 -23.28125 L 22.21875 -24.238281 L 22.539062 -25.300781 L 22.964844 -28.277344 L 23.28125 -29.660156 L 23.707031 -30.832031 L 24.664062 -30.832031 L 26.046875 -30.9375 L 27.214844 -30.9375 L 29.023438 -30.832031 L 31.679688 -30.9375 L 32.636719 -30.9375 L 34.230469 -31.042969 L 35.296875 -31.042969 L 35.507812 -31.253906 L 35.71875 -32.742188 L 36.039062 -34.445312 L 36.253906 -35.933594 L 36.570312 -36.785156 L 36.570312 -37.527344 L 36.890625 -39.121094 L 37.101562 -39.867188 L 37.421875 -41.355469 L 37.632812 -42.523438 L 37.632812 -43.375 L 37.847656 -44.652344 L 37.210938 -45.5 L 36.359375 -45.714844 L 33.59375 -45.714844 L 31.574219 -45.5 L 27.855469 -45.609375 L 25.941406 -45.609375 L 26.152344 -47.519531 L 26.472656 -48.585938 L 26.367188 -49.433594 L 26.578125 -50.179688 L 26.898438 -51.667969 L 27.109375 -53.15625 L 27.429688 -55.175781 L 27.429688 -56.027344 L 27.746094 -56.664062 L 27.746094 -58.152344 L 27.855469 -58.898438 L 28.171875 -60.171875 L 30.722656 -60.277344 L 37.632812 -60.277344 L 38.910156 -60.386719 L 43.375 -60.386719 L 44.4375 -60.492188 L 44.757812 -61.875 L 44.863281 -62.511719 L 45.289062 -64 L 45.289062 -64.851562 L 45.609375 -66.445312 L 45.714844 -67.082031 L 45.820312 -67.828125 L 46.140625 -68.570312 L 46.140625 -69.207031 L 46.351562 -71.867188 L 46.351562 -72.503906 L 46.671875 -73.671875 L 46.140625 -74.417969 L 45.183594 -74.523438 L 44.121094 -74.628906 L 43.164062 -74.523438 L 40.824219 -74.523438 L 37.742188 -74.417969 L 36.890625 -74.523438 L 34.445312 -74.628906 L 26.472656 -74.523438 L 24.132812 -74.417969 L 23.070312 -74.417969 L 22.21875 -74.523438 L 21.476562 -74.523438 L 20.199219 -74.417969 L 19.453125 -74.523438 L 18.816406 -74.417969 L 17.011719 -74.417969 L 16.160156 -73.78125 L 16.054688 -73.140625 L 15.734375 -72.503906 L 15.414062 -71.230469 L 15.628906 -70.484375 L 15.519531 -69.847656 L 15.414062 -68.464844 L 15.308594 -67.828125 L 15.097656 -67.1875 L 14.988281 -65.808594 L 14.777344 -65.0625 L 14.882812 -64.425781 L 14.566406 -63.679688 L 14.566406 -62.9375 L 14.246094 -62.296875 L 14.03125 -60.808594 L 13.609375 -59.429688 L 13.5 -58.683594 L 13.609375 -58.046875 L 13.5 -57.300781 L 13.289062 -56.453125 L 12.863281 -55.8125 L 12.757812 -53.582031 L 12.4375 -52.835938 L 12.332031 -49.859375 L 11.90625 -48.265625 L 11.589844 -46.777344 L 11.695312 -46.140625 L 11.480469 -45.394531 L 11.164062 -44.542969 L 10.523438 -41.355469 L 10.097656 -40.71875 L 10.097656 -39.972656 L 9.992188 -39.230469 L 9.886719 -38.378906 L 9.566406 -37.632812 L 9.355469 -36.039062 L 8.929688 -34.550781 L 8.929688 -32.957031 L 8.503906 -30.722656 L 8.292969 -29.980469 L 7.972656 -28.386719 L 7.867188 -27.640625 L 7.546875 -26.898438 L 7.230469 -25.515625 L 7.335938 -24.875 L 6.910156 -23.601562 L 6.910156 -23.070312 L 6.699219 -21.6875 L 6.484375 -20.835938 L 6.484375 -20.09375 L 6.273438 -18.390625 L 5.847656 -17.542969 L 5.632812 -16.160156 L 5.527344 -14.671875 L 5.421875 -13.925781 L 5.210938 -13.078125 L 5.210938 -12.332031 L 4.996094 -11.589844 L 4.996094 -10.632812 L 4.675781 -9.78125 L 4.570312 -8.078125 L 4.144531 -6.484375 L 3.933594 -4.785156 L 3.722656 -3.1875 L 3.507812 -2.234375 L 3.1875 -1.277344 L 3.507812 -0.320312 L 4.464844 -0.105469 L 10.097656 -0.105469 L 10.84375 0 L 13.609375 0 Z M 15.628906 0.105469" transform="translate(322.019 221.618)"/></g></g></g></svg>